<svg width="284" height="54" fill="none" xmlns="http://www.w3.org/2000/svg"><path d="M76.04 10.34c-.627-.107-1.173-.3-1.64-.58V9h10.74c0 .307-.013.647-.04 1.02-.027.373-.06.747-.1 1.12a27.008 27.008 0 01-.3 2.02h-.82l-1.24-2.86h-3.6v4.56c.12-.013.267-.027.44-.04a6.864 6.864 0 011.06-.08c.187-.013.347-.02.48-.02.68 0 1.327.073 1.94.22a4.392 4.392 0 011.6.72c.467.32.833.74 1.1 1.26.28.52.42 1.147.42 1.88 0 .707-.147 1.327-.44 1.86-.28.533-.673.98-1.18 1.34-.493.347-1.087.613-1.78.8-.68.173-1.42.26-2.22.26-.067 0-.233-.007-.5-.02-.267 0-.567-.007-.9-.02-.333 0-.667-.007-1-.02H74.4v-.76c.253-.147.513-.267.78-.36.28-.107.567-.18.86-.22V10.34zm4.12 5.68c-.213 0-.42.013-.62.04-.2.013-.367.04-.5.08v5.54c.053.013.133.027.24.04l.36.04h.62c.787 0 1.4-.253 1.84-.76.453-.507.68-1.22.68-2.14 0-.88-.207-1.573-.62-2.08-.413-.507-1.08-.76-2-.76zm16.053 4.08v.76c.013.213.033.44.06.68l1.38.2v.7c-.16.08-.38.16-.66.24-.267.08-.554.16-.86.24-.294.067-.587.12-.88.16a12.79 12.79 0 01-.78.12h-.68a2.94 2.94 0 01-.24-.92c-.027-.307-.047-.68-.06-1.12h-.1c-.067.267-.18.527-.34.78a2.881 2.881 0 01-1.48 1.12 3.29 3.29 0 01-1.12.18 3.61 3.61 0 01-1.22-.2c-.374-.133-.7-.32-.98-.56-.28-.24-.5-.527-.66-.86a2.736 2.736 0 01-.24-1.16c0-.6.113-1.093.34-1.48.226-.387.58-.7 1.06-.94.493-.253 1.12-.44 1.88-.56.773-.12 1.706-.207 2.8-.26.106-1.147.06-1.987-.14-2.52-.2-.533-.634-.8-1.3-.8-.414 0-.794.067-1.14.2l-.94 2.4h-.88a6.433 6.433 0 01-.32-.54 32.734 32.734 0 01-.28-.66c-.08-.24-.154-.48-.22-.72a7.016 7.016 0 01-.12-.7c.506-.347 1.16-.62 1.96-.82.8-.2 1.646-.3 2.54-.3.76 0 1.38.087 1.86.26.48.16.853.387 1.12.68.28.28.473.613.58 1 .106.387.16.8.16 1.24 0 .8-.02 1.527-.06 2.18-.027.64-.04 1.3-.04 1.98zm-4.5 1.54c.28 0 .52-.053.72-.16.2-.107.366-.233.5-.38.146-.147.253-.307.32-.48.08-.173.14-.327.18-.46v-2c-.627.013-1.14.053-1.54.12-.4.067-.714.18-.94.34-.227.147-.387.34-.48.58-.08.227-.12.507-.12.84 0 .507.12.9.36 1.18.24.28.573.42 1 .42zM98.525 13h5.32v.78c-.146.08-.32.16-.52.24-.186.08-.413.16-.68.24v4.5l-.22 1.86h.1l.78-1.5 3.66-6.12h3.78v.78c-.426.24-.866.4-1.32.48v7.48c.254.067.494.14.72.22.227.067.427.153.6.26V23h-5.32v-.78a4.73 4.73 0 011.2-.48v-4.72l.2-1.58h-.1l-.76 1.5-3.62 6.06h-3.82v-.78a5.23 5.23 0 01.66-.26c.214-.08.434-.153.66-.22v-7.48c-.52-.08-.96-.24-1.32-.48V13zm6.36-1.12c-1.32 0-2.28-.24-2.88-.72-.6-.48-.9-1.12-.9-1.92.187-.16.46-.28.82-.36.36-.093.734-.153 1.12-.18l.68.26v1.78c.334.147.727.22 1.18.22.134 0 .314-.013.54-.04a3.91 3.91 0 00.64-.12V8.96l.68-.26c.36.027.714.08 1.06.16.347.08.614.207.8.38 0 .8-.306 1.44-.92 1.92-.6.48-1.54.72-2.82.72zM118.164 13h4.58v.78c-.133.107-.3.2-.5.28-.186.067-.44.153-.76.26-.453.547-.92 1.073-1.4 1.58-.48.493-.946.953-1.4 1.38a26.2 26.2 0 011.8 2.2l.92 1.16c.32.387.64.753.96 1.1l.84.48V23h-3.14l-.64-.46a12.88 12.88 0 01-1.42-2.08 98.41 98.41 0 00-1.1-2.06h-.8v3.34c.427.12.8.28 1.12.48V23h-5.32v-.78c.36-.213.8-.373 1.32-.48v-7.48a4.621 4.621 0 01-1.32-.48V13h5.1v.78a6.63 6.63 0 01-.4.26c-.12.08-.286.153-.5.22v3.26l.92-.2c.387-.44.774-.913 1.16-1.42a15.5 15.5 0 001.06-1.58 6.648 6.648 0 01-1.08-.54V13zm14.435 7.1v.76c.014.213.034.44.06.68l1.38.2v.7c-.16.08-.38.16-.66.24-.266.08-.553.16-.86.24-.293.067-.586.12-.88.16a12.72 12.72 0 01-.78.12h-.68a2.956 2.956 0 01-.24-.92 21.77 21.77 0 01-.06-1.12h-.1c-.066.267-.18.527-.34.78-.16.24-.366.46-.62.66a3.08 3.08 0 01-.86.46c-.333.12-.706.18-1.12.18-.44 0-.846-.067-1.22-.2a3.08 3.08 0 01-.98-.56c-.28-.24-.5-.527-.66-.86a2.736 2.736 0 01-.24-1.16c0-.6.114-1.093.34-1.48.227-.387.58-.7 1.06-.94.494-.253 1.12-.44 1.88-.56.774-.12 1.707-.207 2.8-.26.107-1.147.06-1.987-.14-2.52-.2-.533-.633-.8-1.3-.8a3.16 3.16 0 00-1.14.2l-.94 2.4h-.88a6.716 6.716 0 01-.32-.54 39.72 39.72 0 01-.28-.66c-.08-.24-.153-.48-.22-.72a7.194 7.194 0 01-.12-.7c.507-.347 1.16-.62 1.96-.82.8-.2 1.647-.3 2.54-.3.76 0 1.38.087 1.86.26.48.16.854.387 1.12.68.28.28.474.613.58 1 .107.387.16.8.16 1.24 0 .8-.02 1.527-.06 2.18-.026.64-.04 1.3-.04 1.98zm-4.5 1.54c.28 0 .52-.053.72-.16.2-.107.367-.233.5-.38a1.37 1.37 0 00.32-.48c.08-.173.14-.327.18-.46v-2c-.626.013-1.14.053-1.54.12-.4.067-.713.18-.94.34-.226.147-.386.34-.48.58-.08.227-.12.507-.12.84 0 .507.12.9.36 1.18.24.28.574.42 1 .42zm8.613-.9c.333-.627.58-1.5.74-2.62a28.23 28.23 0 00.26-3.66 5.504 5.504 0 01-.78-.3 4.797 4.797 0 01-.64-.38V13h9.26v.78c-.427.24-.867.4-1.32.48v7.48c.28.067.527.14.74.22.213.08.407.167.58.26V23h-5.3v-.78c.16-.107.32-.2.48-.28.173-.08.38-.147.62-.2v-7.6h-2.2a32.73 32.73 0 01-.12 2.22c-.067.76-.173 1.507-.32 2.24a13.873 13.873 0 01-.54 2.08c-.227.64-.5 1.187-.82 1.64-.267.373-.56.64-.88.8-.32.16-.607.213-.86.16a1.482 1.482 0 01-.48-.44 4.683 4.683 0 01-.64-1.34 2.95 2.95 0 01-.12-.58l.46-.68 1.88.5zm14.197-3.76c.227-.027.527-.06.9-.1.373-.04.827-.06 1.36-.06 1.093 0 1.967.253 2.62.76.653.493.98 1.24.98 2.24 0 .533-.107 1.007-.32 1.42-.213.4-.507.74-.88 1.02-.373.267-.82.473-1.34.62-.507.133-1.06.2-1.66.2-.187 0-.453-.007-.8-.02-.333 0-.7-.007-1.1-.02l-1.16-.04h-2.8v-.78c.2-.107.413-.193.64-.26.227-.08.453-.153.68-.22v-7.48a4.82 4.82 0 01-1.32-.48V13h5.4v.78a5.1 5.1 0 01-1.2.48v2.72zm0 4.88c.133.027.273.047.42.06.16.013.313.02.46.02.28 0 .533-.033.76-.1.227-.067.42-.18.58-.34.16-.173.28-.393.36-.66.093-.28.14-.627.14-1.04 0-.36-.047-.653-.14-.88a1.2 1.2 0 00-.36-.56 1.14 1.14 0 00-.54-.3c-.2-.067-.42-.1-.66-.1-.16 0-.333.007-.52.02-.173.013-.34.04-.5.08v3.8zm15.297-.48a2.079 2.079 0 01-.46.74 3.582 3.582 0 01-.78.58 3.692 3.692 0 01-1.02.4 4.85 4.85 0 01-1.18.14c-.88 0-1.64-.12-2.28-.36a4.201 4.201 0 01-1.56-1.06 4.49 4.49 0 01-.92-1.66c-.2-.653-.3-1.373-.3-2.16 0-1.693.46-2.987 1.38-3.88.933-.907 2.253-1.36 3.96-1.36.653 0 1.253.073 1.8.22.547.133 1 .293 1.36.48a11.3 11.3 0 01-.12.76c-.04.267-.093.54-.16.82-.053.267-.12.533-.2.8-.08.253-.16.467-.24.64h-.98l-.84-2.38a.874.874 0 00-.3-.14 1.45 1.45 0 00-.48-.06 1.91 1.91 0 00-.9.2c-.253.12-.473.333-.66.64-.173.307-.307.713-.4 1.22-.08.507-.12 1.133-.12 1.88 0 .547.06 1.053.18 1.52.12.453.3.853.54 1.2.253.333.567.6.94.8.373.187.813.28 1.32.28.467 0 .873-.067 1.22-.2s.64-.293.88-.48l.32.42zm7.407-8.38h4.58v.78c-.133.107-.3.2-.5.28-.186.067-.44.153-.76.26-.453.547-.92 1.073-1.4 1.58-.48.493-.946.953-1.4 1.38a26.2 26.2 0 011.8 2.2l.92 1.16c.32.387.64.753.96 1.1l.84.48V23h-3.14l-.64-.46a12.88 12.88 0 01-1.42-2.08 98.41 98.41 0 00-1.1-2.06h-.8v3.34c.427.12.8.28 1.12.48V23h-5.32v-.78c.36-.213.8-.373 1.32-.48v-7.48a4.621 4.621 0 01-1.32-.48V13h5.1v.78a6.63 6.63 0 01-.4.26c-.12.08-.286.153-.5.22v3.26l.92-.2c.387-.44.774-.913 1.16-1.42a15.5 15.5 0 001.06-1.58 6.648 6.648 0 01-1.08-.54V13zm5.615 0h5.32v.78c-.146.08-.32.16-.52.24-.186.08-.413.16-.68.24v4.5l-.22 1.86h.1l.78-1.5 3.66-6.12h3.78v.78c-.426.24-.866.4-1.32.48v7.48c.254.067.494.14.72.22.227.067.427.153.6.26V23h-5.32v-.78a4.73 4.73 0 011.2-.48v-4.72l.2-1.58h-.1l-.76 1.5-3.62 6.06h-3.82v-.78a5.23 5.23 0 01.66-.26c.214-.08.434-.153.66-.22v-7.48c-.52-.08-.96-.24-1.32-.48V13zm13.379 0h5.32v.78c-.146.08-.32.16-.52.24-.186.08-.413.16-.68.24v4.5l-.22 1.86h.1l.78-1.5 3.66-6.12h3.78v.78c-.426.24-.866.4-1.32.48v7.48c.254.067.494.14.72.22.227.067.427.153.6.26V23h-5.32v-.78a4.73 4.73 0 011.2-.48v-4.72l.2-1.58h-.1l-.76 1.5-3.62 6.06h-3.82v-.78a5.23 5.23 0 01.66-.26c.214-.08.434-.153.66-.22v-7.48c-.52-.08-.96-.24-1.32-.48V13zm6.36-1.12c-1.32 0-2.28-.24-2.88-.72-.6-.48-.9-1.12-.9-1.92.187-.16.46-.28.82-.36.36-.093.734-.153 1.12-.18l.68.26v1.78c.334.147.727.22 1.18.22.134 0 .314-.013.54-.04a3.91 3.91 0 00.64-.12V8.96l.68-.26c.36.027.714.08 1.06.16.347.08.614.207.8.38 0 .8-.306 1.44-.92 1.92-.6.48-1.54.72-2.82.72zm12.45 6.12c0-.813.12-1.54.36-2.18a4.73 4.73 0 011.06-1.66 4.71 4.71 0 011.68-1.04c.653-.24 1.393-.36 2.22-.36.933 0 1.733.133 2.4.4.68.253 1.233.613 1.66 1.08.44.453.76 1.007.96 1.66.2.64.3 1.34.3 2.1 0 .813-.12 1.547-.36 2.2a4.478 4.478 0 01-2.74 2.68c-.653.24-1.393.36-2.22.36-.907 0-1.693-.127-2.36-.38-.667-.267-1.22-.627-1.66-1.08a4.42 4.42 0 01-.98-1.66 6.802 6.802 0 01-.32-2.12zm3.1 0c0 .6.033 1.153.1 1.66.08.493.213.913.4 1.26.187.347.44.62.76.82.32.187.733.28 1.24.28.293 0 .56-.067.8-.2.24-.147.447-.373.62-.68.173-.32.3-.733.38-1.24.093-.52.14-1.153.14-1.9 0-.613-.04-1.167-.12-1.66-.067-.493-.193-.913-.38-1.26a1.907 1.907 0 00-.72-.8c-.307-.2-.693-.3-1.16-.3a1.76 1.76 0 00-.9.22c-.253.133-.467.36-.64.68-.173.307-.307.72-.4 1.24-.08.507-.12 1.133-.12 1.88zm16.239 5h-5.68v-.78c.2-.107.427-.2.68-.28a9.76 9.76 0 01.72-.2v-7.6h-1.46l-.88 2.76h-.84c-.067-.28-.133-.593-.2-.94-.053-.347-.1-.693-.14-1.04-.04-.36-.08-.707-.12-1.04-.027-.333-.04-.627-.04-.88h10.24c0 .24-.013.527-.04.86-.027.333-.067.68-.12 1.04-.04.347-.093.7-.16 1.06-.053.347-.113.66-.18.94h-.84l-.88-2.76h-1.46v7.6c.307.08.567.153.78.22.213.067.42.153.62.26V23zm4.076 0l-1.08 2.96h-.78a63.16 63.16 0 01-.22-2.12 29.771 29.771 0 01-.08-2.1h1.46c.16-.187.34-.467.54-.84.2-.373.387-.853.56-1.44.187-.6.34-1.307.46-2.12.133-.827.2-1.787.2-2.88a4.59 4.59 0 01-.82-.28 3.485 3.485 0 01-.66-.4V13h9.5v.78c-.36.24-.8.4-1.32.48v7.48h1.86a19.27 19.27 0 01-.08 2.1 29.78 29.78 0 01-.22 2.12h-.78l-1.08-2.96h-7.46zm2.52-8.74c0 1.12-.06 2.093-.18 2.92a16.24 16.24 0 01-.44 2.14c-.173.6-.353 1.1-.54 1.5a13.54 13.54 0 01-.48.92h4v-7.48h-2.36zm12.209 2.72l.84-.1c.347-.04.787-.06 1.32-.06 1.04 0 1.88.253 2.52.76.654.493.98 1.24.98 2.24 0 .533-.106 1.007-.32 1.42-.2.4-.486.74-.86 1.02-.36.267-.793.473-1.3.62-.493.133-1.033.2-1.62.2-.186 0-.446-.007-.78-.02-.32 0-.673-.007-1.06-.02l-1.12-.04h-2.8v-.78c.214-.12.427-.213.64-.28l.68-.2v-7.48a3.6 3.6 0 01-.7-.18 8.925 8.925 0 01-.62-.3V13h5.4v.78a5.1 5.1 0 01-1.2.48v2.72zm0 4.88c.134.027.274.047.42.06.16.013.314.02.46.02.534 0 .94-.16 1.22-.48.28-.333.42-.887.42-1.66 0-.72-.153-1.207-.46-1.46-.293-.253-.653-.38-1.08-.38-.146 0-.306.007-.48.02-.173.013-.34.04-.5.08v3.8zm11.24 1.14h-5.3v-.78c.16-.093.327-.18.5-.26.174-.08.374-.153.6-.22v-7.48c-.506-.093-.906-.253-1.2-.48V13h5.4v.78c-.16.107-.353.2-.58.28-.226.067-.473.133-.74.2v7.48c.227.067.447.14.66.22.214.067.434.153.66.26V23zm7.442-5.36l3.16 4.1c.346.107.673.267.98.48V23h-5.1v-.76c.146-.107.293-.2.44-.28.16-.093.32-.167.48-.22l-1.9-2.72-1.84 2.72c.186.067.346.14.48.22.146.08.286.167.42.26V23h-3.78v-.78c.186-.107.353-.2.5-.28.16-.08.34-.147.54-.2l2.96-3.68-2.98-3.8a6.333 6.333 0 01-.5-.2 2.134 2.134 0 01-.4-.28V13h5.02v.76c-.16.107-.307.207-.44.3-.12.08-.274.147-.46.2l1.74 2.48 1.66-2.48a2.355 2.355 0 01-.54-.22 2.422 2.422 0 01-.36-.26V13h3.7v.78c-.134.093-.28.18-.44.26-.16.08-.36.153-.6.22l-2.74 3.38zM84.327 35.592h-4.113V47h-1.679V35.592h-4.104v-1.389h9.896v1.389zm4.122 9.026l2.215-7.128h1.74l-3.823 10.978c-.592 1.582-1.532 2.373-2.821 2.373l-.308-.026-.606-.115v-1.318l.44.035c.55 0 .978-.111 1.282-.334.31-.223.566-.63.765-1.222l.36-.966-3.392-9.405h1.775l2.373 7.128zm13.447-2.267c0 1.447-.331 2.613-.993 3.498-.662.884-1.558 1.327-2.69 1.327-1.153 0-2.062-.366-2.724-1.099v4.58h-1.626V37.49h1.486l.079 1.055c.662-.82 1.582-1.23 2.76-1.23 1.142 0 2.044.43 2.707 1.291.667.862 1.001 2.06 1.001 3.595v.15zm-1.625-.185c0-1.072-.229-1.919-.686-2.54-.457-.621-1.084-.932-1.88-.932-.985 0-1.724.437-2.216 1.31v4.544c.487.867 1.23 1.3 2.233 1.3.779 0 1.397-.307 1.854-.922.463-.621.695-1.541.695-2.76zM109.842 47c-.094-.188-.17-.522-.229-1.002-.756.785-1.658 1.178-2.707 1.178-.937 0-1.708-.264-2.311-.791-.598-.533-.897-1.207-.897-2.022 0-.99.375-1.758 1.125-2.303.756-.55 1.817-.826 3.182-.826h1.582v-.747c0-.568-.17-1.02-.51-1.353-.34-.34-.841-.51-1.503-.51-.58 0-1.066.146-1.459.44-.392.292-.589.647-.589 1.063h-1.634c0-.475.167-.932.501-1.371.339-.446.796-.797 1.371-1.055a4.64 4.64 0 011.907-.386c1.096 0 1.954.275 2.575.826.621.544.943 1.297.967 2.258v4.377c0 .873.111 1.568.334 2.083V47h-1.705zm-2.698-1.24c.509 0 .993-.131 1.45-.395.457-.263.788-.606.993-1.028v-1.951h-1.275c-1.992 0-2.988.583-2.988 1.749 0 .51.17.908.51 1.195.34.287.776.43 1.31.43zm12.761-6.925h-4.385V47h-1.635v-9.51h6.02v1.345zm5.186 8.34c-1.289 0-2.338-.421-3.147-1.265-.808-.85-1.213-1.983-1.213-3.401v-.299c0-.943.179-1.784.537-2.523.363-.744.867-1.324 1.511-1.74a3.806 3.806 0 012.11-.633c1.236 0 2.197.408 2.882 1.222.686.815 1.029 1.98 1.029 3.498v.677h-6.443c.024.937.296 1.696.818 2.276.527.575 1.195.862 2.004.862.574 0 1.06-.118 1.459-.352a3.675 3.675 0 001.046-.932l.993.774c-.797 1.224-1.992 1.837-3.586 1.837zm-.202-8.525c-.657 0-1.207.24-1.653.721-.445.475-.72 1.143-.826 2.004h4.764v-.123c-.047-.826-.27-1.465-.668-1.916-.399-.457-.938-.686-1.617-.686zm13.57 8.35h-1.626v-4.06h-4.368V47h-1.635v-9.51h1.635v4.122h4.368V37.49h1.626V47zm9.686-8.191h-3.191V47h-1.626v-8.191h-3.129V37.49h7.946v1.319zm4.693 7.04a2.34 2.34 0 001.52-.528c.434-.351.674-.79.721-1.318h1.538c-.029.545-.217 1.063-.562 1.556a3.7 3.7 0 01-1.389 1.177 3.968 3.968 0 01-1.828.44c-1.295 0-2.326-.43-3.094-1.292-.762-.867-1.142-2.051-1.142-3.551v-.273c0-.925.169-1.748.509-2.47.34-.72.827-1.28 1.459-1.678.639-.398 1.392-.597 2.259-.597 1.067 0 1.951.319 2.654.958.709.638 1.087 1.467 1.134 2.487h-1.538c-.047-.615-.281-1.12-.703-1.512-.416-.398-.932-.598-1.547-.598-.826 0-1.468.3-1.925.897-.451.592-.676 1.45-.676 2.575v.308c0 1.095.225 1.94.676 2.53.451.593 1.096.889 1.934.889zm12.674-7.04h-3.191V47h-1.626v-8.191h-3.129V37.49h7.946v1.319zM167.243 47v-9.51h3.709c1.266 0 2.236.223 2.909.668.68.44 1.02 1.087 1.02 1.943 0 .439-.132.837-.396 1.195-.263.352-.653.621-1.169.809.575.134 1.035.398 1.38.79.352.393.528.862.528 1.407 0 .873-.323 1.54-.967 2.004-.639.463-1.544.694-2.716.694h-4.298zm1.626-4.175v2.865h2.69c.679 0 1.186-.125 1.52-.377.34-.253.51-.607.51-1.064 0-.95-.697-1.424-2.092-1.424h-2.628zm0-1.3h2.101c1.523 0 2.285-.446 2.285-1.337 0-.89-.721-1.35-2.162-1.38h-2.224v2.716zm8.077.632c0-.931.182-1.77.545-2.513.369-.745.879-1.319 1.53-1.723.656-.404 1.403-.606 2.241-.606 1.295 0 2.341.448 3.137 1.344.803.897 1.205 2.089 1.205 3.577v.115c0 .925-.179 1.757-.537 2.496a4 4 0 01-1.52 1.713c-.656.41-1.412.616-2.268.616-1.289 0-2.335-.449-3.137-1.345-.797-.896-1.196-2.083-1.196-3.56v-.114zm1.635.194c0 1.054.243 1.901.73 2.54.492.638 1.148.958 1.968.958.826 0 1.483-.323 1.969-.967.486-.65.73-1.559.73-2.725 0-1.043-.249-1.886-.748-2.531-.492-.65-1.148-.976-1.968-.976-.803 0-1.45.32-1.943.958-.492.64-.738 1.553-.738 2.743z" fill="#fff"/><path d="M25.105 30.444c.487.095.575-.144.654-.313.078-.17.312-.43.652-.591.341-.162.799-.435.977-.598.18-.163.373-.366.783-.382.41-.017.614-.217.742-.481.132-.264.04-.818.13-1.015.09-.194.317-.54.45-.845.136-.303.019-.278-.182-.19-.2.086-.376.156-.454.426-.08.27-.151.333-.404.518-.255.183-.44.314-.711.402-.275.087-.808.254-1.109.4-.28.137-.576.3-.9.494l-2.069 2.068c.386-.04 1.006.022 1.44.107z" fill="#3FA9F5"/><path d="M47.559 9.506c-.1.082-.173.156-.19.209-.053.187-.081 1.002-.272 1.352-.186.35-.25 1.02-.253 1.146a1.12 1.12 0 01-.146.55c-.123.205-.376.504-.285.656.091.151.455.423.263.619s-.659.479-.524.768c.14.29.357.822.347 1.039-.01.216-.142.427-.006.572a.61.61 0 01.052.757c-.199.317-1.172 1.686-1.77 2.187-.596.5-1.147 1.064-1.317 1.388-.17.324-.19.572-.275.685-.085.113-.331.287-.509.457-.175.17-.037.274.054.424.092.152.016.392-.13.538-.145.147-.535.357-.292.515.24.159.302.43.187.553-.114.123-.367.457-.383.58-.018.123-.58.127-.849-.055-.266-.183-.706-.473-.611-.564.095-.09.345-.223.57-.504.228-.281.2-.682.328-.727.134-.043.167-.289-.06-.446-.231-.157-.313-.313-.09-.574.224-.261.483-.767.095-.987-.387-.22-.819-.113-1.318.047-.501.161-.416.277-1.059.875-.646.599-.379.928-.772 1.354-.391.424-.358.637-.75 1.062-.39.426-.985.802-1.176 1.13-.191.328.028.4.439.144.411-.255.224-.261.836-.323.614-.061.619.044 1.04-.149.425-.191.652-.327.834-.136.182.193.499.612.64.944.142.332.181.796.065 1.343-.118.546-.048.806-.365 1.138-.318.33-.757.5-1.18.692-.423.191-.285.106-.69.32-.404.217-.488.059-.677-.217-.192-.276-.77-.17-1.03.046-.256.214-1.135 1.156-1.43 1.323-.294.168-1.101.412-1.367.687-.267.276-.32.52-.138.69.186.172.372.781-.096 1.007-.469.226-.743.398-.87.713-.126.317-.713.653-1.068.791-.353.14-1.138.406-1.42.785-.28.378-.495.702-.826.843-.33.144-.926.52-1.286.553-.36.034-.646-.463-1.433-.322-.79.142-1.61.34-1.796.482-.189.141-.394.424-.62.562-.228.134-.424.358-1.065.455-.636.101-.829.138-1.238.372-.406.235-.763.541-1.113.68-.355.14-.739.065-.91.542-.17.477-.252 1.07-.574 1.295-.323.227-.39.404-.668.449-.275.047-.338-1.005-1.02-.89-.685.114-.91.229-1.125.137-.217-.093-.315-.149-.633-.088-.321.06-1.03-.08-1.255.328-.222.406-.499.45-.73 1.086-.237.634-.27.734.064.883.334.15.315.294.13.436-.19.14-.648.432-.776.768-.13.337-.158.541-.34.807-.183.266-.568.63-.394.738.175.107.367.363.168.441-.196.077-.612.207-.926.685-.317.478-1.004 1.09-1.305 1.445a2.42 2.42 0 01-.328.328A26.87 26.87 0 0027 54c14.912 0 27-12.088 27-27a26.89 26.89 0 00-6.441-17.494z" fill="#3FA9F5"/><path d="M24.588 28.63c-.3-.041-.56.193-.678.302-.12.108-.194.036-.432-.039-.24-.074-.486.185-.554.382-.069.199-.42.171-.552.07-.131-.102-.484.037-.692.177-.206.137-.393.34-.61.561-.219.22.258.432.416.6.15.158.393.08.54.018.148-.064.45-.146.64-.217.191-.07.494-.056.851-.133.04-.008.098-.009.145-.013l2.069-2.068-.069.04c-.352.21-.778.36-1.074.32z" fill="#70CF29"/><path d="M6.184 43.13c1.02-.331 1.92-1.429 2.28-2.019.357-.589 1.27-1.768 1.846-2.523.577-.754 2.067-1.688 3.32-2.1 1.25-.41 2.658-.94 3.378-1.73.718-.789.668-1.018 1.141-1.231.473-.212 1.091-.46 1.239-.718.146-.257.153-1.118.88-1.351.726-.234.7-.244.764-.548.063-.303-.363-.53-.591-.561-.225-.03-.87.13-.78-.087.092-.216.525-.782 1.082-1.038.556-.257 1.222-.707 1.387-.997.165-.29.625-.768 1.182-1.024.558-.256 1.324-.693 1.7-.849.376-.157 1.328-.547 1.53-.664.205-.119.965-.347 1.002-.758.034-.412-.292-.457.085-.925.376-.47.6-.585.935-1.185.331-.6.43-.713.902-.96.471-.246 1.634-.96 1.78-.962.145-.001.483-.016.748-.44.264-.422.593-.376.853-.444.26-.069.643-.745.971-.847.325-.1.445-.501.484-.787.04-.285.192-.932.515-1.012.323-.08.539-.593.62-.873.079-.28.184-1.038.575-1.149.39-.114.255-.049.483-.33.225-.282.416-.756.767-1.04.355-.284.52-.43.615-.833.1-.403.372-1.636.886-2.336.513-.7 1.023-1.067 1.59-1.552.567-.485.583-1.065.904-1.417.32-.352.1-.57.299-.794.194-.223.22-.406.257-.526.038-.122-.136-.353.106-.612.243-.257.45-.25.67-.47.146-.146.115-.27.114-.393A26.847 26.847 0 0027 0C12.088 0 0 12.088 0 27c0 6.17 2.073 11.852 5.555 16.398.203-.102.413-.198.629-.267z" fill="#70CF29"/></svg>