<svg width="284" height="54" viewBox="0 0 284 54" fill="none" xmlns="http://www.w3.org/2000/svg">
<path d="M76.04 10.34C75.4133 10.2333 74.8667 10.04 74.4 9.76V9H85.14C85.14 9.30667 85.1267 9.64667 85.1 10.02C85.0733 10.3933 85.04 10.7667 85 11.14C84.96 11.5133 84.9133 11.8733 84.86 12.22C84.8067 12.5667 84.7533 12.88 84.7 13.16H83.88L82.64 10.3H79.04V14.86C79.16 14.8467 79.3067 14.8333 79.48 14.82C79.6533 14.7933 79.8267 14.7733 80 14.76C80.1867 14.7467 80.3667 14.74 80.54 14.74C80.7267 14.7267 80.8867 14.72 81.02 14.72C81.7 14.72 82.3467 14.7933 82.96 14.94C83.5733 15.0867 84.1067 15.3267 84.56 15.66C85.0267 15.98 85.3933 16.4 85.66 16.92C85.94 17.44 86.08 18.0667 86.08 18.8C86.08 19.5067 85.9333 20.1267 85.64 20.66C85.36 21.1933 84.9667 21.64 84.46 22C83.9667 22.3467 83.3733 22.6133 82.68 22.8C82 22.9733 81.26 23.06 80.46 23.06C80.3933 23.06 80.2267 23.0533 79.96 23.04C79.6933 23.04 79.3933 23.0333 79.06 23.02C78.7267 23.02 78.3933 23.0133 78.06 23C77.7267 23 77.46 23 77.26 23H74.4V22.24C74.6533 22.0933 74.9133 21.9733 75.18 21.88C75.46 21.7733 75.7467 21.7 76.04 21.66V10.34ZM80.16 16.02C79.9467 16.02 79.74 16.0333 79.54 16.06C79.34 16.0733 79.1733 16.1 79.04 16.14V21.68C79.0933 21.6933 79.1733 21.7067 79.28 21.72C79.4 21.7333 79.52 21.7467 79.64 21.76C79.76 21.76 79.8733 21.76 79.98 21.76C80.1 21.76 80.1933 21.76 80.26 21.76C81.0467 21.76 81.66 21.5067 82.1 21C82.5533 20.4933 82.78 19.78 82.78 18.86C82.78 17.98 82.5733 17.2867 82.16 16.78C81.7467 16.2733 81.08 16.02 80.16 16.02ZM96.2125 20.1C96.2125 20.3933 96.2125 20.6467 96.2125 20.86C96.2258 21.0733 96.2458 21.3 96.2725 21.54L97.6525 21.74V22.44C97.4925 22.52 97.2725 22.6 96.9925 22.68C96.7258 22.76 96.4392 22.84 96.1325 22.92C95.8392 22.9867 95.5458 23.04 95.2525 23.08C94.9592 23.1333 94.6992 23.1733 94.4725 23.2H93.7925C93.6592 22.8933 93.5792 22.5867 93.5525 22.28C93.5258 21.9733 93.5058 21.6 93.4925 21.16H93.3925C93.3258 21.4267 93.2125 21.6867 93.0525 21.94C92.8925 22.18 92.6858 22.4 92.4325 22.6C92.1925 22.7867 91.9058 22.94 91.5725 23.06C91.2392 23.18 90.8658 23.24 90.4525 23.24C90.0125 23.24 89.6058 23.1733 89.2325 23.04C88.8592 22.9067 88.5325 22.72 88.2525 22.48C87.9725 22.24 87.7525 21.9533 87.5925 21.62C87.4325 21.2733 87.3525 20.8867 87.3525 20.46C87.3525 19.86 87.4658 19.3667 87.6925 18.98C87.9192 18.5933 88.2725 18.28 88.7525 18.04C89.2458 17.7867 89.8725 17.6 90.6325 17.48C91.4058 17.36 92.3392 17.2733 93.4325 17.22C93.5392 16.0733 93.4925 15.2333 93.2925 14.7C93.0925 14.1667 92.6592 13.9 91.9925 13.9C91.5792 13.9 91.1992 13.9667 90.8525 14.1L89.9125 16.5H89.0325C88.9258 16.34 88.8192 16.16 88.7125 15.96C88.6192 15.7467 88.5258 15.5267 88.4325 15.3C88.3525 15.06 88.2792 14.82 88.2125 14.58C88.1592 14.34 88.1192 14.1067 88.0925 13.88C88.5992 13.5333 89.2525 13.26 90.0525 13.06C90.8525 12.86 91.6992 12.76 92.5925 12.76C93.3525 12.76 93.9725 12.8467 94.4525 13.02C94.9325 13.18 95.3058 13.4067 95.5725 13.7C95.8525 13.98 96.0458 14.3133 96.1525 14.7C96.2592 15.0867 96.3125 15.5 96.3125 15.94C96.3125 16.74 96.2925 17.4667 96.2525 18.12C96.2258 18.76 96.2125 19.42 96.2125 20.1ZM91.7125 21.64C91.9925 21.64 92.2325 21.5867 92.4325 21.48C92.6325 21.3733 92.7992 21.2467 92.9325 21.1C93.0792 20.9533 93.1858 20.7933 93.2525 20.62C93.3325 20.4467 93.3925 20.2933 93.4325 20.16V18.16C92.8058 18.1733 92.2925 18.2133 91.8925 18.28C91.4925 18.3467 91.1792 18.46 90.9525 18.62C90.7258 18.7667 90.5658 18.96 90.4725 19.2C90.3925 19.4267 90.3525 19.7067 90.3525 20.04C90.3525 20.5467 90.4725 20.94 90.7125 21.22C90.9525 21.5 91.2858 21.64 91.7125 21.64ZM98.5253 13H103.845V13.78C103.699 13.86 103.525 13.94 103.325 14.02C103.139 14.1 102.912 14.18 102.645 14.26V18.76L102.425 20.62H102.525L103.305 19.12L106.965 13H110.745V13.78C110.319 14.02 109.879 14.18 109.425 14.26V21.74C109.679 21.8067 109.919 21.88 110.145 21.96C110.372 22.0267 110.572 22.1133 110.745 22.22V23H105.425V22.22C105.799 22.0067 106.199 21.8467 106.625 21.74V17.02L106.825 15.44H106.725L105.965 16.94L102.345 23H98.5253V22.22C98.752 22.1133 98.972 22.0267 99.1853 21.96C99.3986 21.88 99.6186 21.8067 99.8453 21.74V14.26C99.3253 14.18 98.8853 14.02 98.5253 13.78V13ZM104.885 11.88C103.565 11.88 102.605 11.64 102.005 11.16C101.405 10.68 101.105 10.04 101.105 9.24C101.292 9.08 101.565 8.96 101.925 8.88C102.285 8.78667 102.659 8.72667 103.045 8.7L103.725 8.96V10.74C104.059 10.8867 104.452 10.96 104.905 10.96C105.039 10.96 105.219 10.9467 105.445 10.92C105.685 10.8933 105.899 10.8533 106.085 10.8V8.96L106.765 8.7C107.125 8.72667 107.479 8.78 107.825 8.86C108.172 8.94 108.439 9.06667 108.625 9.24C108.625 10.04 108.319 10.68 107.705 11.16C107.105 11.64 106.165 11.88 104.885 11.88ZM118.164 13H122.744V13.78C122.611 13.8867 122.444 13.98 122.244 14.06C122.058 14.1267 121.804 14.2133 121.484 14.32C121.031 14.8667 120.564 15.3933 120.084 15.9C119.604 16.3933 119.138 16.8533 118.684 17.28C118.978 17.6 119.278 17.9467 119.584 18.32C119.891 18.6933 120.191 19.08 120.484 19.48C120.791 19.8667 121.098 20.2533 121.404 20.64C121.724 21.0267 122.044 21.3933 122.364 21.74L123.204 22.22V23H120.064L119.424 22.54C118.851 21.8467 118.378 21.1533 118.004 20.46C117.644 19.7667 117.278 19.08 116.904 18.4H116.104V21.74C116.531 21.86 116.904 22.02 117.224 22.22V23H111.904V22.22C112.264 22.0067 112.704 21.8467 113.224 21.74V14.26C112.758 14.1667 112.318 14.0067 111.904 13.78V13H117.004V13.78C116.871 13.8733 116.738 13.96 116.604 14.04C116.484 14.12 116.318 14.1933 116.104 14.26V17.52L117.024 17.32C117.411 16.88 117.798 16.4067 118.184 15.9C118.571 15.3933 118.924 14.8667 119.244 14.32C119.018 14.2267 118.824 14.14 118.664 14.06C118.504 13.98 118.338 13.8867 118.164 13.78V13ZM132.599 20.1C132.599 20.3933 132.599 20.6467 132.599 20.86C132.613 21.0733 132.633 21.3 132.659 21.54L134.039 21.74V22.44C133.879 22.52 133.659 22.6 133.379 22.68C133.113 22.76 132.826 22.84 132.519 22.92C132.226 22.9867 131.933 23.04 131.639 23.08C131.346 23.1333 131.086 23.1733 130.859 23.2H130.179C130.046 22.8933 129.966 22.5867 129.939 22.28C129.913 21.9733 129.893 21.6 129.879 21.16H129.779C129.713 21.4267 129.599 21.6867 129.439 21.94C129.279 22.18 129.073 22.4 128.819 22.6C128.579 22.7867 128.293 22.94 127.959 23.06C127.626 23.18 127.253 23.24 126.839 23.24C126.399 23.24 125.993 23.1733 125.619 23.04C125.246 22.9067 124.919 22.72 124.639 22.48C124.359 22.24 124.139 21.9533 123.979 21.62C123.819 21.2733 123.739 20.8867 123.739 20.46C123.739 19.86 123.853 19.3667 124.079 18.98C124.306 18.5933 124.659 18.28 125.139 18.04C125.633 17.7867 126.259 17.6 127.019 17.48C127.793 17.36 128.726 17.2733 129.819 17.22C129.926 16.0733 129.879 15.2333 129.679 14.7C129.479 14.1667 129.046 13.9 128.379 13.9C127.966 13.9 127.586 13.9667 127.239 14.1L126.299 16.5H125.419C125.313 16.34 125.206 16.16 125.099 15.96C125.006 15.7467 124.913 15.5267 124.819 15.3C124.739 15.06 124.666 14.82 124.599 14.58C124.546 14.34 124.506 14.1067 124.479 13.88C124.986 13.5333 125.639 13.26 126.439 13.06C127.239 12.86 128.086 12.76 128.979 12.76C129.739 12.76 130.359 12.8467 130.839 13.02C131.319 13.18 131.693 13.4067 131.959 13.7C132.239 13.98 132.433 14.3133 132.539 14.7C132.646 15.0867 132.699 15.5 132.699 15.94C132.699 16.74 132.679 17.4667 132.639 18.12C132.613 18.76 132.599 19.42 132.599 20.1ZM128.099 21.64C128.379 21.64 128.619 21.5867 128.819 21.48C129.019 21.3733 129.186 21.2467 129.319 21.1C129.466 20.9533 129.573 20.7933 129.639 20.62C129.719 20.4467 129.779 20.2933 129.819 20.16V18.16C129.193 18.1733 128.679 18.2133 128.279 18.28C127.879 18.3467 127.566 18.46 127.339 18.62C127.113 18.7667 126.953 18.96 126.859 19.2C126.779 19.4267 126.739 19.7067 126.739 20.04C126.739 20.5467 126.859 20.94 127.099 21.22C127.339 21.5 127.673 21.64 128.099 21.64ZM136.712 20.74C137.045 20.1133 137.292 19.24 137.452 18.12C137.612 16.9867 137.699 15.7667 137.712 14.46C137.445 14.38 137.185 14.28 136.932 14.16C136.692 14.04 136.479 13.9133 136.292 13.78V13H145.552V13.78C145.125 14.02 144.685 14.18 144.232 14.26V21.74C144.512 21.8067 144.759 21.88 144.972 21.96C145.185 22.04 145.379 22.1267 145.552 22.22V23H140.252V22.22C140.412 22.1133 140.572 22.02 140.732 21.94C140.905 21.86 141.112 21.7933 141.352 21.74V14.14H139.152C139.139 14.8467 139.099 15.5867 139.032 16.36C138.965 17.12 138.859 17.8667 138.712 18.6C138.579 19.3333 138.399 20.0267 138.172 20.68C137.945 21.32 137.672 21.8667 137.352 22.32C137.085 22.6933 136.792 22.96 136.472 23.12C136.152 23.28 135.865 23.3333 135.612 23.28C135.439 23.1867 135.279 23.04 135.132 22.84C134.985 22.6267 134.859 22.4067 134.752 22.18C134.645 21.9533 134.559 21.7267 134.492 21.5C134.425 21.2733 134.385 21.08 134.372 20.92L134.832 20.24L136.712 20.74ZM150.909 16.98C151.136 16.9533 151.436 16.92 151.809 16.88C152.182 16.84 152.636 16.82 153.169 16.82C154.262 16.82 155.136 17.0733 155.789 17.58C156.442 18.0733 156.769 18.82 156.769 19.82C156.769 20.3533 156.662 20.8267 156.449 21.24C156.236 21.64 155.942 21.98 155.569 22.26C155.196 22.5267 154.749 22.7333 154.229 22.88C153.722 23.0133 153.169 23.08 152.569 23.08C152.382 23.08 152.116 23.0733 151.769 23.06C151.436 23.06 151.069 23.0533 150.669 23.04C150.282 23.0267 149.896 23.0133 149.509 23C149.136 23 148.822 23 148.569 23H146.709V22.22C146.909 22.1133 147.122 22.0267 147.349 21.96C147.576 21.88 147.802 21.8067 148.029 21.74V14.26C147.776 14.2067 147.542 14.14 147.329 14.06C147.116 13.98 146.909 13.8867 146.709 13.78V13H152.109V13.78C151.789 13.9667 151.389 14.1267 150.909 14.26V16.98ZM150.909 21.86C151.042 21.8867 151.182 21.9067 151.329 21.92C151.489 21.9333 151.642 21.94 151.789 21.94C152.069 21.94 152.322 21.9067 152.549 21.84C152.776 21.7733 152.969 21.66 153.129 21.5C153.289 21.3267 153.409 21.1067 153.489 20.84C153.582 20.56 153.629 20.2133 153.629 19.8C153.629 19.44 153.582 19.1467 153.489 18.92C153.409 18.68 153.289 18.4933 153.129 18.36C152.982 18.2133 152.802 18.1133 152.589 18.06C152.389 17.9933 152.169 17.96 151.929 17.96C151.769 17.96 151.596 17.9667 151.409 17.98C151.236 17.9933 151.069 18.02 150.909 18.06V21.86ZM166.206 21.38C166.113 21.6467 165.959 21.8933 165.746 22.12C165.533 22.3333 165.273 22.5267 164.966 22.7C164.673 22.8733 164.333 23.0067 163.946 23.1C163.573 23.1933 163.179 23.24 162.766 23.24C161.886 23.24 161.126 23.12 160.486 22.88C159.859 22.6267 159.339 22.2733 158.926 21.82C158.513 21.3533 158.206 20.8 158.006 20.16C157.806 19.5067 157.706 18.7867 157.706 18C157.706 16.3067 158.166 15.0133 159.086 14.12C160.019 13.2133 161.339 12.76 163.046 12.76C163.699 12.76 164.299 12.8333 164.846 12.98C165.393 13.1133 165.846 13.2733 166.206 13.46C166.179 13.6867 166.139 13.94 166.086 14.22C166.046 14.4867 165.993 14.76 165.926 15.04C165.873 15.3067 165.806 15.5733 165.726 15.84C165.646 16.0933 165.566 16.3067 165.486 16.48H164.506L163.666 14.1C163.573 14.0333 163.473 13.9867 163.366 13.96C163.259 13.92 163.099 13.9 162.886 13.9C162.539 13.9 162.239 13.9667 161.986 14.1C161.733 14.22 161.513 14.4333 161.326 14.74C161.153 15.0467 161.019 15.4533 160.926 15.96C160.846 16.4667 160.806 17.0933 160.806 17.84C160.806 18.3867 160.866 18.8933 160.986 19.36C161.106 19.8133 161.286 20.2133 161.526 20.56C161.779 20.8933 162.093 21.16 162.466 21.36C162.839 21.5467 163.279 21.64 163.786 21.64C164.253 21.64 164.659 21.5733 165.006 21.44C165.353 21.3067 165.646 21.1467 165.886 20.96L166.206 21.38ZM173.613 13H178.193V13.78C178.06 13.8867 177.893 13.98 177.693 14.06C177.507 14.1267 177.253 14.2133 176.933 14.32C176.48 14.8667 176.013 15.3933 175.533 15.9C175.053 16.3933 174.587 16.8533 174.133 17.28C174.427 17.6 174.727 17.9467 175.033 18.32C175.34 18.6933 175.64 19.08 175.933 19.48C176.24 19.8667 176.547 20.2533 176.853 20.64C177.173 21.0267 177.493 21.3933 177.813 21.74L178.653 22.22V23H175.513L174.873 22.54C174.3 21.8467 173.827 21.1533 173.453 20.46C173.093 19.7667 172.727 19.08 172.353 18.4H171.553V21.74C171.98 21.86 172.353 22.02 172.673 22.22V23H167.353V22.22C167.713 22.0067 168.153 21.8467 168.673 21.74V14.26C168.207 14.1667 167.767 14.0067 167.353 13.78V13H172.453V13.78C172.32 13.8733 172.187 13.96 172.053 14.04C171.933 14.12 171.767 14.1933 171.553 14.26V17.52L172.473 17.32C172.86 16.88 173.247 16.4067 173.633 15.9C174.02 15.3933 174.373 14.8667 174.693 14.32C174.467 14.2267 174.273 14.14 174.113 14.06C173.953 13.98 173.787 13.8867 173.613 13.78V13ZM179.228 13H184.548V13.78C184.402 13.86 184.228 13.94 184.028 14.02C183.842 14.1 183.615 14.18 183.348 14.26V18.76L183.128 20.62H183.228L184.008 19.12L187.668 13H191.448V13.78C191.022 14.02 190.582 14.18 190.128 14.26V21.74C190.382 21.8067 190.622 21.88 190.848 21.96C191.075 22.0267 191.275 22.1133 191.448 22.22V23H186.128V22.22C186.502 22.0067 186.902 21.8467 187.328 21.74V17.02L187.528 15.44H187.428L186.668 16.94L183.048 23H179.228V22.22C179.455 22.1133 179.675 22.0267 179.888 21.96C180.102 21.88 180.322 21.8067 180.548 21.74V14.26C180.028 14.18 179.588 14.02 179.228 13.78V13ZM192.607 13H197.927V13.78C197.781 13.86 197.607 13.94 197.407 14.02C197.221 14.1 196.994 14.18 196.727 14.26V18.76L196.507 20.62H196.607L197.387 19.12L201.047 13H204.827V13.78C204.401 14.02 203.961 14.18 203.507 14.26V21.74C203.761 21.8067 204.001 21.88 204.227 21.96C204.454 22.0267 204.654 22.1133 204.827 22.22V23H199.507V22.22C199.881 22.0067 200.281 21.8467 200.707 21.74V17.02L200.907 15.44H200.807L200.047 16.94L196.427 23H192.607V22.22C192.834 22.1133 193.054 22.0267 193.267 21.96C193.481 21.88 193.701 21.8067 193.927 21.74V14.26C193.407 14.18 192.967 14.02 192.607 13.78V13ZM198.967 11.88C197.647 11.88 196.687 11.64 196.087 11.16C195.487 10.68 195.187 10.04 195.187 9.24C195.374 9.08 195.647 8.96 196.007 8.88C196.367 8.78667 196.741 8.72667 197.127 8.7L197.807 8.96V10.74C198.141 10.8867 198.534 10.96 198.987 10.96C199.121 10.96 199.301 10.9467 199.527 10.92C199.767 10.8933 199.981 10.8533 200.167 10.8V8.96L200.847 8.7C201.207 8.72667 201.561 8.78 201.907 8.86C202.254 8.94 202.521 9.06667 202.707 9.24C202.707 10.04 202.401 10.68 201.787 11.16C201.187 11.64 200.247 11.88 198.967 11.88ZM211.417 18C211.417 17.1867 211.537 16.46 211.777 15.82C212.03 15.1667 212.384 14.6133 212.837 14.16C213.304 13.7067 213.864 13.36 214.517 13.12C215.17 12.88 215.91 12.76 216.737 12.76C217.67 12.76 218.47 12.8933 219.137 13.16C219.817 13.4133 220.37 13.7733 220.797 14.24C221.237 14.6933 221.557 15.2467 221.757 15.9C221.957 16.54 222.057 17.24 222.057 18C222.057 18.8133 221.937 19.5467 221.697 20.2C221.457 20.84 221.104 21.3867 220.637 21.84C220.184 22.2933 219.624 22.64 218.957 22.88C218.304 23.12 217.564 23.24 216.737 23.24C215.83 23.24 215.044 23.1133 214.377 22.86C213.71 22.5933 213.157 22.2333 212.717 21.78C212.277 21.3133 211.95 20.76 211.737 20.12C211.524 19.4667 211.417 18.76 211.417 18ZM214.517 18C214.517 18.6 214.55 19.1533 214.617 19.66C214.697 20.1533 214.83 20.5733 215.017 20.92C215.204 21.2667 215.457 21.54 215.777 21.74C216.097 21.9267 216.51 22.02 217.017 22.02C217.31 22.02 217.577 21.9533 217.817 21.82C218.057 21.6733 218.264 21.4467 218.437 21.14C218.61 20.82 218.737 20.4067 218.817 19.9C218.91 19.38 218.957 18.7467 218.957 18C218.957 17.3867 218.917 16.8333 218.837 16.34C218.77 15.8467 218.644 15.4267 218.457 15.08C218.284 14.7333 218.044 14.4667 217.737 14.28C217.43 14.08 217.044 13.98 216.577 13.98C216.23 13.98 215.93 14.0533 215.677 14.2C215.424 14.3333 215.21 14.56 215.037 14.88C214.864 15.1867 214.73 15.6 214.637 16.12C214.557 16.6267 214.517 17.2533 214.517 18ZM230.756 23H225.076V22.22C225.276 22.1133 225.503 22.02 225.756 21.94C226.009 21.86 226.249 21.7933 226.476 21.74V14.14H225.016L224.136 16.9H223.296C223.229 16.62 223.163 16.3067 223.096 15.96C223.043 15.6133 222.996 15.2667 222.956 14.92C222.916 14.56 222.876 14.2133 222.836 13.88C222.809 13.5467 222.796 13.2533 222.796 13H233.036C233.036 13.24 233.023 13.5267 232.996 13.86C232.969 14.1933 232.929 14.54 232.876 14.9C232.836 15.2467 232.783 15.6 232.716 15.96C232.663 16.3067 232.603 16.62 232.536 16.9H231.696L230.816 14.14H229.356V21.74C229.663 21.82 229.923 21.8933 230.136 21.96C230.349 22.0267 230.556 22.1133 230.756 22.22V23ZM234.832 23L233.752 25.96H232.972C232.892 25.3067 232.819 24.6 232.752 23.84C232.699 23.0933 232.672 22.3933 232.672 21.74H234.132C234.292 21.5533 234.472 21.2733 234.672 20.9C234.872 20.5267 235.059 20.0467 235.232 19.46C235.419 18.86 235.572 18.1533 235.692 17.34C235.825 16.5133 235.892 15.5533 235.892 14.46C235.612 14.3933 235.339 14.3 235.072 14.18C234.819 14.06 234.599 13.9267 234.412 13.78V13H243.912V13.78C243.552 14.02 243.112 14.18 242.592 14.26V21.74H244.452C244.465 22.3933 244.439 23.0933 244.372 23.84C244.319 24.6 244.245 25.3067 244.152 25.96H243.372L242.292 23H234.832ZM237.352 14.26C237.352 15.38 237.292 16.3533 237.172 17.18C237.052 18.0067 236.905 18.72 236.732 19.32C236.559 19.92 236.379 20.42 236.192 20.82C236.005 21.2067 235.845 21.5133 235.712 21.74H239.712V14.26H237.352ZM249.561 16.98C249.788 16.9533 250.068 16.92 250.401 16.88C250.748 16.84 251.188 16.82 251.721 16.82C252.761 16.82 253.601 17.0733 254.241 17.58C254.895 18.0733 255.221 18.82 255.221 19.82C255.221 20.3533 255.115 20.8267 254.901 21.24C254.701 21.64 254.415 21.98 254.041 22.26C253.681 22.5267 253.248 22.7333 252.741 22.88C252.248 23.0133 251.708 23.08 251.121 23.08C250.935 23.08 250.675 23.0733 250.341 23.06C250.021 23.06 249.668 23.0533 249.281 23.04C248.908 23.0267 248.535 23.0133 248.161 23C247.788 23 247.475 23 247.221 23H245.361V22.22C245.575 22.1 245.788 22.0067 246.001 21.94C246.228 21.8733 246.455 21.8067 246.681 21.74V14.26C246.428 14.22 246.195 14.16 245.981 14.08C245.768 13.9867 245.561 13.8867 245.361 13.78V13H250.761V13.78C250.441 13.9667 250.041 14.1267 249.561 14.26V16.98ZM249.561 21.86C249.695 21.8867 249.835 21.9067 249.981 21.92C250.141 21.9333 250.295 21.94 250.441 21.94C250.975 21.94 251.381 21.78 251.661 21.46C251.941 21.1267 252.081 20.5733 252.081 19.8C252.081 19.08 251.928 18.5933 251.621 18.34C251.328 18.0867 250.968 17.96 250.541 17.96C250.395 17.96 250.235 17.9667 250.061 17.98C249.888 17.9933 249.721 18.02 249.561 18.06V21.86ZM260.801 23H255.501V22.22C255.661 22.1267 255.828 22.04 256.001 21.96C256.175 21.88 256.375 21.8067 256.601 21.74V14.26C256.095 14.1667 255.695 14.0067 255.401 13.78V13H260.801V13.78C260.641 13.8867 260.448 13.98 260.221 14.06C259.995 14.1267 259.748 14.1933 259.481 14.26V21.74C259.708 21.8067 259.928 21.88 260.141 21.96C260.355 22.0267 260.575 22.1133 260.801 22.22V23ZM268.243 17.64L271.403 21.74C271.749 21.8467 272.076 22.0067 272.383 22.22V23H267.283V22.24C267.429 22.1333 267.576 22.04 267.723 21.96C267.883 21.8667 268.043 21.7933 268.203 21.74L266.303 19.02L264.463 21.74C264.649 21.8067 264.809 21.88 264.943 21.96C265.089 22.04 265.229 22.1267 265.363 22.22V23H261.583V22.22C261.769 22.1133 261.936 22.02 262.083 21.94C262.243 21.86 262.423 21.7933 262.623 21.74L265.583 18.06L262.603 14.26C262.416 14.1933 262.249 14.1267 262.103 14.06C261.956 13.98 261.823 13.8867 261.703 13.78V13H266.723V13.76C266.563 13.8667 266.416 13.9667 266.283 14.06C266.163 14.14 266.009 14.2067 265.823 14.26L267.563 16.74L269.223 14.26C268.996 14.1933 268.816 14.12 268.683 14.04C268.549 13.96 268.429 13.8733 268.323 13.78V13H272.023V13.78C271.889 13.8733 271.743 13.96 271.583 14.04C271.423 14.12 271.223 14.1933 270.983 14.26L268.243 17.64Z" fill="white"/>
<path d="M84.3271 35.5918H80.2139V47H78.5352V35.5918H74.4307V34.2031H84.3271V35.5918ZM88.4492 44.6182L90.6641 37.4902H92.4043L88.5811 48.4678C87.9893 50.0498 87.0488 50.8408 85.7598 50.8408L85.4521 50.8145L84.8457 50.7002V49.3818L85.2852 49.417C85.8359 49.417 86.2637 49.3057 86.5684 49.083C86.8789 48.8604 87.1338 48.4531 87.333 47.8613L87.6934 46.8945L84.3008 37.4902H86.0762L88.4492 44.6182ZM101.896 42.3506C101.896 43.7979 101.565 44.9639 100.903 45.8486C100.241 46.7334 99.3447 47.1758 98.2139 47.1758C97.0596 47.1758 96.1514 46.8096 95.4893 46.0771V50.6562H93.8633V37.4902H95.3486L95.4277 38.5449C96.0898 37.7246 97.0098 37.3145 98.1875 37.3145C99.3301 37.3145 100.232 37.7451 100.895 38.6064C101.562 39.4678 101.896 40.666 101.896 42.2012V42.3506ZM100.271 42.166C100.271 41.0938 100.042 40.2471 99.585 39.626C99.1279 39.0049 98.501 38.6943 97.7041 38.6943C96.7197 38.6943 95.9814 39.1309 95.4893 40.0039V44.5479C95.9756 45.415 96.7197 45.8486 97.7217 45.8486C98.501 45.8486 99.1191 45.541 99.5762 44.9258C100.039 44.3047 100.271 43.3848 100.271 42.166ZM109.842 47C109.748 46.8125 109.672 46.4785 109.613 45.998C108.857 46.7832 107.955 47.1758 106.906 47.1758C105.969 47.1758 105.198 46.9121 104.595 46.3848C103.997 45.8516 103.698 45.1777 103.698 44.3633C103.698 43.373 104.073 42.6055 104.823 42.0605C105.579 41.5098 106.64 41.2344 108.005 41.2344H109.587V40.4873C109.587 39.9189 109.417 39.4678 109.077 39.1338C108.737 38.7939 108.236 38.624 107.574 38.624C106.994 38.624 106.508 38.7705 106.115 39.0635C105.723 39.3564 105.526 39.7109 105.526 40.127H103.892C103.892 39.6523 104.059 39.1953 104.393 38.7559C104.732 38.3105 105.189 37.959 105.764 37.7012C106.344 37.4434 106.979 37.3145 107.671 37.3145C108.767 37.3145 109.625 37.5898 110.246 38.1406C110.867 38.6855 111.189 39.4385 111.213 40.3994V44.7764C111.213 45.6494 111.324 46.3438 111.547 46.8594V47H109.842ZM107.144 45.7607C107.653 45.7607 108.137 45.6289 108.594 45.3652C109.051 45.1016 109.382 44.7588 109.587 44.3369V42.3857H108.312C106.32 42.3857 105.324 42.9688 105.324 44.1348C105.324 44.6445 105.494 45.043 105.834 45.3301C106.174 45.6172 106.61 45.7607 107.144 45.7607ZM119.905 38.835H115.52V47H113.885V37.4902H119.905V38.835ZM125.091 47.1758C123.802 47.1758 122.753 46.7539 121.944 45.9102C121.136 45.0605 120.731 43.9268 120.731 42.5088V42.21C120.731 41.2666 120.91 40.4258 121.268 39.6875C121.631 38.9434 122.135 38.3633 122.779 37.9473C123.43 37.5254 124.133 37.3145 124.889 37.3145C126.125 37.3145 127.086 37.7217 127.771 38.5361C128.457 39.3506 128.8 40.5166 128.8 42.0342V42.7109H122.357C122.381 43.6484 122.653 44.4072 123.175 44.9873C123.702 45.5615 124.37 45.8486 125.179 45.8486C125.753 45.8486 126.239 45.7314 126.638 45.4971C127.036 45.2627 127.385 44.9521 127.684 44.5654L128.677 45.3389C127.88 46.5635 126.685 47.1758 125.091 47.1758ZM124.889 38.6504C124.232 38.6504 123.682 38.8906 123.236 39.3711C122.791 39.8457 122.516 40.5137 122.41 41.375H127.174V41.252C127.127 40.4258 126.904 39.7871 126.506 39.3359C126.107 38.8789 125.568 38.6504 124.889 38.6504ZM138.459 47H136.833V42.9395H132.465V47H130.83V37.4902H132.465V41.6123H136.833V37.4902H138.459V47ZM148.145 38.8086H144.954V47H143.328V38.8086H140.199V37.4902H148.145V38.8086ZM152.838 45.8486C153.418 45.8486 153.925 45.6729 154.358 45.3213C154.792 44.9697 155.032 44.5303 155.079 44.0029H156.617C156.588 44.5479 156.4 45.0664 156.055 45.5586C155.709 46.0508 155.246 46.4434 154.666 46.7363C154.092 47.0293 153.482 47.1758 152.838 47.1758C151.543 47.1758 150.512 46.7451 149.744 45.8838C148.982 45.0166 148.602 43.833 148.602 42.333V42.0605C148.602 41.1348 148.771 40.3115 149.111 39.5908C149.451 38.8701 149.938 38.3105 150.57 37.9121C151.209 37.5137 151.962 37.3145 152.829 37.3145C153.896 37.3145 154.78 37.6338 155.483 38.2725C156.192 38.9111 156.57 39.7402 156.617 40.7598H155.079C155.032 40.1445 154.798 39.6406 154.376 39.248C153.96 38.8496 153.444 38.6504 152.829 38.6504C152.003 38.6504 151.361 38.9492 150.904 39.5469C150.453 40.1387 150.228 40.9971 150.228 42.1221V42.4297C150.228 43.5254 150.453 44.3691 150.904 44.9609C151.355 45.5527 152 45.8486 152.838 45.8486ZM165.512 38.8086H162.321V47H160.695V38.8086H157.566V37.4902H165.512V38.8086ZM167.243 47V37.4902H170.952C172.218 37.4902 173.188 37.7129 173.861 38.1582C174.541 38.5977 174.881 39.2451 174.881 40.1006C174.881 40.54 174.749 40.9385 174.485 41.2959C174.222 41.6475 173.832 41.917 173.316 42.1045C173.891 42.2393 174.351 42.5029 174.696 42.8955C175.048 43.2881 175.224 43.7568 175.224 44.3018C175.224 45.1748 174.901 45.8428 174.257 46.3057C173.618 46.7686 172.713 47 171.541 47H167.243ZM168.869 42.8252V45.6904H171.559C172.238 45.6904 172.745 45.5645 173.079 45.3125C173.419 45.0605 173.589 44.7061 173.589 44.249C173.589 43.2998 172.892 42.8252 171.497 42.8252H168.869ZM168.869 41.5244H170.97C172.493 41.5244 173.255 41.0791 173.255 40.1885C173.255 39.2979 172.534 38.8379 171.093 38.8086H168.869V41.5244ZM176.946 42.1572C176.946 41.2256 177.128 40.3877 177.491 39.6436C177.86 38.8994 178.37 38.3252 179.021 37.9209C179.677 37.5166 180.424 37.3145 181.262 37.3145C182.557 37.3145 183.603 37.7627 184.399 38.6592C185.202 39.5557 185.604 40.748 185.604 42.2363V42.3506C185.604 43.2764 185.425 44.1084 185.067 44.8467C184.716 45.5791 184.209 46.1504 183.547 46.5605C182.891 46.9707 182.135 47.1758 181.279 47.1758C179.99 47.1758 178.944 46.7275 178.142 45.8311C177.345 44.9346 176.946 43.748 176.946 42.2715V42.1572ZM178.581 42.3506C178.581 43.4053 178.824 44.252 179.311 44.8906C179.803 45.5293 180.459 45.8486 181.279 45.8486C182.105 45.8486 182.762 45.5264 183.248 44.8818C183.734 44.2314 183.978 43.3232 183.978 42.1572C183.978 41.1143 183.729 40.2705 183.23 39.626C182.738 38.9756 182.082 38.6504 181.262 38.6504C180.459 38.6504 179.812 38.9697 179.319 39.6084C178.827 40.2471 178.581 41.1611 178.581 42.3506Z" fill="white"/>
<path d="M25.1049 30.4438C25.5919 30.5385 25.6796 30.3001 25.759 30.131C25.8375 29.9608 26.0708 29.701 26.4111 29.54C26.7524 29.378 27.2099 29.105 27.3882 28.9419C27.5685 28.7789 27.7611 28.5762 28.1707 28.5599C28.5813 28.5426 28.7851 28.3429 28.9134 28.079C29.0449 27.8151 28.9532 27.2608 29.0428 27.0642C29.1325 26.8696 29.3597 26.5242 29.4932 26.2195C29.6287 25.9159 29.5115 25.9414 29.3108 26.029C29.1101 26.1146 28.9348 26.1849 28.8574 26.4549C28.7779 26.7259 28.7056 26.7881 28.4529 26.9725C28.1982 27.1559 28.0138 27.2873 27.7418 27.3749C27.4667 27.4615 26.9338 27.6286 26.6332 27.7753C26.353 27.9119 26.0565 28.0749 25.7325 28.2685L23.6642 30.3368C24.0504 30.297 24.6699 30.3592 25.1049 30.4438Z" fill="#3FA9F5"/>
<path d="M47.5587 9.5061C47.4589 9.58761 47.3855 9.66199 47.3692 9.71497C47.3163 9.90244 47.2877 10.7175 47.0972 11.067C46.9107 11.4165 46.8466 12.0879 46.8445 12.2132C46.8394 12.3375 46.8241 12.5576 46.6978 12.7634C46.5745 12.9682 46.3218 13.2667 46.4135 13.4186C46.5042 13.5704 46.868 13.8424 46.6764 14.038C46.4838 14.2337 46.0172 14.5169 46.1517 14.8063C46.2913 15.0966 46.5093 15.6275 46.4991 15.8445C46.4889 16.0615 46.3575 16.2724 46.493 16.4171C46.6295 16.5618 46.7436 16.8583 46.545 17.1741C46.3463 17.491 45.3733 18.8603 44.7752 19.3606C44.1792 19.8619 43.628 20.4253 43.4578 20.7493C43.2877 21.0733 43.2683 21.3209 43.1827 21.434C43.0981 21.5471 42.8516 21.7213 42.6743 21.8915C42.499 22.0616 42.6366 22.1645 42.7283 22.3153C42.82 22.4671 42.7436 22.7066 42.5989 22.8533C42.4532 23 42.063 23.2099 42.3055 23.3678C42.5469 23.5267 42.6081 23.7978 42.4929 23.921C42.3788 24.0443 42.1261 24.3775 42.1098 24.5008C42.0915 24.6241 41.5291 24.6281 41.2611 24.4458C40.9952 24.2634 40.555 23.973 40.6498 23.8823C40.7446 23.7916 40.9952 23.6592 41.2204 23.378C41.4476 23.0968 41.4201 22.6964 41.5484 22.6515C41.6819 22.6077 41.7155 22.3622 41.4873 22.2053C41.257 22.0484 41.1755 21.8915 41.3977 21.6306C41.6218 21.3698 41.8806 20.8644 41.4934 20.6444C41.1063 20.4243 40.6743 20.5313 40.175 20.6912C39.6737 20.8522 39.7593 20.9684 39.1164 21.5664C38.4704 22.1645 38.7374 22.4936 38.3441 22.9195C37.9529 23.3444 37.9865 23.5573 37.5942 23.9822C37.204 24.4081 36.609 24.784 36.4184 25.1121C36.2269 25.4402 36.446 25.5115 36.8566 25.2558C37.2682 25.001 37.0807 24.9949 37.693 24.9328C38.3074 24.8717 38.3115 24.9766 38.7333 24.784C39.1582 24.5925 39.3854 24.457 39.5667 24.6485C39.7491 24.8411 40.066 25.2598 40.2066 25.592C40.3492 25.9241 40.388 26.3877 40.2718 26.9349C40.1536 27.481 40.2239 27.7408 39.907 28.0729C39.5892 28.403 39.15 28.5722 38.7272 28.7647C38.3044 28.9563 38.4419 28.8707 38.0374 29.0857C37.6329 29.3017 37.5494 29.1438 37.3599 28.8677C37.1683 28.5915 36.5896 28.6985 36.3308 28.9135C36.0741 29.1285 35.1948 30.0699 34.8993 30.237C34.6059 30.4051 33.7989 30.6486 33.533 30.9237C33.2661 31.1998 33.2131 31.4433 33.3955 31.6135C33.5809 31.7857 33.7673 32.395 33.2987 32.6212C32.83 32.8473 32.5559 33.0195 32.4286 33.3344C32.3032 33.6512 31.7164 33.9875 31.3608 34.125C31.0083 34.2646 30.2227 34.5305 29.9405 34.9095C29.6603 35.2875 29.4463 35.6115 29.1152 35.7532C28.7841 35.8968 28.189 36.2728 27.8294 36.3064C27.4697 36.34 27.1834 35.8428 26.3958 35.9844C25.6052 36.1261 24.786 36.3247 24.5996 36.4664C24.4111 36.607 24.2063 36.8902 23.9801 37.0278C23.7519 37.1623 23.5563 37.3864 22.9154 37.4832C22.2786 37.5841 22.086 37.6207 21.6775 37.8551C21.2709 38.0904 20.9143 38.3961 20.5638 38.5357C20.2093 38.6743 19.8252 38.5999 19.654 39.0767C19.4849 39.5535 19.4023 40.1465 19.0804 40.3717C18.7574 40.5989 18.6901 40.7762 18.412 40.821C18.1369 40.8679 18.0737 39.8164 17.3921 39.9305C16.7074 40.0446 16.4823 40.1598 16.2673 40.0681C16.0503 39.9754 15.9524 39.9193 15.6335 39.9804C15.3126 40.0406 14.6035 39.9 14.3793 40.3075C14.1572 40.714 13.8801 40.7589 13.6488 41.3936C13.4124 42.0284 13.3788 42.1282 13.713 42.277C14.0472 42.4278 14.0278 42.5714 13.8424 42.7131C13.6539 42.8537 13.1954 43.145 13.067 43.4813C12.9376 43.8175 12.9091 44.0223 12.7267 44.2882C12.5443 44.5541 12.1592 44.9189 12.3334 45.0259C12.5076 45.1329 12.7002 45.3886 12.5015 45.467C12.3049 45.5435 11.8892 45.6739 11.5754 46.1517C11.2575 46.6296 10.5708 47.2429 10.2702 47.5975C10.1643 47.7228 10.0593 47.8288 9.94214 47.9246C14.5912 51.7219 20.5282 54.0001 27 54.0001C41.9122 54.0001 54 41.9122 54 27.0001C54 20.3244 51.5721 14.2194 47.5587 9.5061Z" fill="#3FA9F5"/>
<path d="M24.5883 28.6303C24.2888 28.5885 24.028 28.8228 23.9098 28.9319C23.7895 29.0399 23.7162 28.9675 23.4778 28.8931C23.2373 28.8188 22.9918 29.0776 22.9245 29.2752C22.8552 29.4739 22.5037 29.4464 22.3723 29.3445C22.2409 29.2426 21.8883 29.3822 21.6805 29.5218C21.4737 29.6593 21.2872 29.8621 21.0692 30.0832C20.8511 30.3022 21.328 30.5152 21.4859 30.6823C21.6367 30.8412 21.8792 30.7638 22.0259 30.7006C22.1736 30.6374 22.4752 30.5549 22.6668 30.4836C22.8573 30.4133 23.1599 30.4276 23.5175 30.3511C23.5562 30.343 23.6153 30.342 23.6622 30.3379L25.7305 28.2696C25.7071 28.2839 25.6857 28.2951 25.6622 28.3093C25.3097 28.5202 24.8838 28.67 24.5883 28.6303Z" fill="#70CF29"/>
<path d="M6.18351 43.1307C7.2034 42.7986 8.10408 41.7012 8.46374 41.1113C8.82136 40.5224 9.73325 39.3426 10.3099 38.5876C10.8866 37.8336 12.3772 36.9003 13.6294 36.4877C14.8795 36.0771 16.2876 35.5483 17.008 34.7587C17.7263 33.9691 17.6763 33.7398 18.1491 33.5269C18.6218 33.3149 19.2403 33.0674 19.388 32.8086C19.5337 32.5518 19.5409 31.6909 20.2673 31.4575C20.9938 31.2242 20.9673 31.214 21.0315 30.9104C21.0946 30.6068 20.6688 30.3806 20.4405 30.349C20.2164 30.3185 19.5704 30.4794 19.6601 30.2624C19.7528 30.0464 20.1858 29.4799 20.7431 29.2242C21.2994 28.9674 21.9648 28.5171 22.1298 28.2267C22.2949 27.9374 22.7554 27.4595 23.3117 27.2028C23.87 26.947 24.6362 26.5099 25.0122 26.354C25.3882 26.1971 26.3398 25.8069 26.5425 25.6897C26.7473 25.5715 27.5074 25.3433 27.5441 24.9317C27.5777 24.5201 27.2517 24.4752 27.6286 24.0066C28.0046 23.5369 28.2298 23.4217 28.564 22.8216C28.8951 22.2225 28.9939 22.1094 29.4657 21.8629C29.9374 21.6163 31.0999 20.9011 31.2456 20.9C31.3913 20.899 31.7286 20.8837 31.9935 20.4609C32.2584 20.0381 32.5865 20.0839 32.8473 20.0157C33.1061 19.9474 33.4902 19.2709 33.8183 19.169C34.1433 19.0681 34.2625 18.6677 34.3022 18.3824C34.342 18.0971 34.4938 17.4502 34.8168 17.3697C35.1397 17.2892 35.3557 16.7767 35.4362 16.4975C35.5157 16.2163 35.6206 15.4593 36.0119 15.3482C36.4021 15.2341 36.2666 15.2993 36.4948 15.0181C36.72 14.7359 36.9115 14.2621 37.262 13.9778C37.6166 13.6936 37.7817 13.5489 37.8774 13.1454C37.9763 12.742 38.2493 11.5091 38.7628 10.8092C39.2763 10.1092 39.7858 9.74242 40.3533 9.25743C40.9198 8.77245 40.9361 8.1917 41.257 7.84019C41.5769 7.48766 41.3569 7.26962 41.5555 7.04649C41.7502 6.82336 41.7766 6.63996 41.8133 6.51974C41.851 6.39849 41.6768 6.16721 41.9193 5.90842C42.1618 5.65064 42.3696 5.65879 42.5887 5.43872C42.7354 5.292 42.7038 5.1677 42.7028 5.04543C38.2789 1.87268 32.8605 0 27 0C12.0878 0 0 12.0878 0 27C0 33.1692 2.0734 38.8515 5.55487 43.3977C5.75762 43.2958 5.96751 43.2 6.18351 43.1307Z" fill="#70CF29"/>
</svg>
